<?xml version="1.0" encoding="UTF-8" standalone="no"?>
<!-- Created with Inkscape (http://www.inkscape.org/) -->

<svg
   width="45.415203mm"
   height="8.793704mm"
   viewBox="0 0 45.415203 8.793704"
   version="1.1"
   id="svg8877"
   xml:space="preserve"
   inkscape:version="1.2.2 (b0a84865, 2022-12-01)"
   sodipodi:docname="upliftLogo.svg"
   xmlns:inkscape="http://www.inkscape.org/namespaces/inkscape"
   xmlns:sodipodi="http://sodipodi.sourceforge.net/DTD/sodipodi-0.dtd"
   xmlns="http://www.w3.org/2000/svg"
   xmlns:svg="http://www.w3.org/2000/svg"><sodipodi:namedview
     id="namedview8879"
     pagecolor="#ffffff"
     bordercolor="#000000"
     borderopacity="0.25"
     inkscape:showpageshadow="2"
     inkscape:pageopacity="0.0"
     inkscape:pagecheckerboard="0"
     inkscape:deskcolor="#d1d1d1"
     inkscape:document-units="mm"
     showgrid="false"
     inkscape:zoom="0.66354774"
     inkscape:cx="137.89513"
     inkscape:cy="67.06375"
     inkscape:window-width="1470"
     inkscape:window-height="891"
     inkscape:window-x="0"
     inkscape:window-y="37"
     inkscape:window-maximized="0"
     inkscape:current-layer="layer1" /><defs
     id="defs8874"><rect
       x="116.07417"
       y="402.13931"
       width="138.44141"
       height="60.980141"
       id="rect9321" /></defs><g
     inkscape:label="Layer 1"
     inkscape:groupmode="layer"
     id="layer1"
     transform="translate(-26.15125,-105.79972)"><path
       style="fill:#7fc9ff;fill-opacity:1;stroke-width:0.339539;stroke-linecap:round;stroke-linejoin:round"
       d="m 51.222032,114.59342 h 3.677365 v -3.88235 h 2.238396 l -3.917194,-4.91135 -4.035915,4.91135 h 2.117291 z"
       id="path9537"
       sodipodi:nodetypes="cccccccc" /><g
       aria-label="UPL  FT"
       id="text9327"
       style="font-size:11.2889px;font-family:'Gang of Three';-inkscape-font-specification:'Gang of Three';stroke-width:0.264583;stroke-linecap:round;stroke-linejoin:round"><path
         d="m 26.15125,106.39768 v 0.15805 h 1.049867 v 5.27191 q 0,0.508 0.112889,1.00472 0.112889,0.49671 0.462845,0.89182 0.361245,0.38382 1.02729,0.63218 0.666045,0.23706 1.761069,0.23706 0.677334,0 1.140179,-0.15804 0.462844,-0.14676 0.767645,-0.38382 0.3048,-0.24836 0.462845,-0.55316 0.158044,-0.3048 0.237067,-0.6096 0.07902,-0.3048 0.09031,-0.57573 0.01129,-0.28223 0.01129,-0.46285 v -5.29449 h 1.049867 v -0.15805 h -2.25778 v 0.15805 h 1.02729 v 5.30578 q 0,0.16933 -0.01129,0.42898 -0.01129,0.24835 -0.07902,0.54187 -0.06773,0.28222 -0.214489,0.57573 -0.146756,0.28222 -0.417689,0.51929 -0.270934,0.22578 -0.688623,0.37253 -0.406401,0.13547 -1.016001,0.13547 -0.62089,0 -0.993424,-0.23707 -0.361244,-0.24835 -0.553156,-0.64347 -0.180622,-0.39511 -0.237067,-0.89182 -0.04516,-0.508 -0.04516,-1.03858 v -5.06871 h 1.038579 v -0.15805 z"
         style="font-weight:bold;font-family:Didot;-inkscape-font-specification:'Didot Bold'"
         id="path308" /><path
         d="m 37.63206,110.4504 v -3.89467 q 0.09031,-0.0113 0.2032,-0.0226 0.112889,-0.0113 0.237067,-0.0113 0.982135,0 1.354668,0.51929 0.372534,0.51929 0.372534,1.50142 0,1.03858 -0.428978,1.47885 -0.428978,0.42898 -1.388535,0.42898 z m 0,3.82693 v -3.66889 h 0.462845 q 0.903112,0 1.569157,-0.16933 0.666045,-0.16934 1.106313,-0.45156 0.440267,-0.29351 0.654756,-0.67733 0.214489,-0.39511 0.214489,-0.83538 0,-0.65476 -0.338667,-1.06116 -0.327378,-0.41769 -0.82409,-0.64346 -0.496712,-0.23707 -1.083734,-0.31609 -0.587023,-0.0903 -1.095024,-0.0903 -0.575734,0 -1.151468,0.0226 -0.575733,0.0113 -1.151467,0.0113 h -1.038579 v 0.15805 h 1.038579 v 7.7216 h -1.038579 v 0.15805 h 3.714048 v -0.15805 z"
         style="font-weight:bold;font-family:Didot;-inkscape-font-specification:'Didot Bold'"
         id="path310" /><path
         d="m 42.407252,106.39768 v 0.15805 h 1.038579 v 7.7216 h -1.038579 v 0.15805 h 7.157163 v -2.55129 h -0.146756 q -0.146756,0.65475 -0.417689,1.1176 -0.259645,0.45155 -0.598312,0.74507 -0.327378,0.28222 -0.711201,0.4064 -0.372534,0.12417 -0.745067,0.12417 h -1.862669 v -7.7216 H 46.1213 v -0.15805 z"
         style="font-weight:bold;font-family:Didot;-inkscape-font-specification:'Didot Bold'"
         id="path312" /><path
         d="m 57.771423,106.55573 v 7.7216 h -1.038579 v 0.15805 h 3.725337 v -0.15805 h -1.049867 v -3.92853 h 0.756356 q 0.395112,0 0.654756,0.13546 0.270934,0.13547 0.451556,0.37254 0.180623,0.22578 0.282223,0.53058 0.112889,0.3048 0.191911,0.63217 h 0.146756 v -3.51084 h -0.146756 q -0.07902,0.38382 -0.2032,0.69991 -0.124178,0.3048 -0.316089,0.53058 -0.191912,0.21449 -0.485423,0.33866 -0.282223,0.11289 -0.699912,0.11289 h -0.632178 v -3.63502 h 1.704624 q 0.451556,0 0.778934,0.12417 0.338667,0.12418 0.587023,0.36125 0.248355,0.22578 0.428978,0.55316 0.191911,0.32737 0.349956,0.73377 h 0.146755 v -1.9304 h -6.67174 v 0.15805 z"
         style="font-weight:bold;font-family:Didot;-inkscape-font-specification:'Didot Bold'"
         id="path314" /><path
         d="m 67.208938,106.55573 v 7.7216 h -1.038579 v 0.15805 h 3.714049 v -0.15805 h -1.038579 v -7.7216 h 0.4064 q 0.417689,0 0.745068,0.0903 0.327378,0.079 0.587022,0.29351 0.259645,0.2032 0.462845,0.57573 0.203201,0.37254 0.372534,0.94827 h 0.146756 v -2.06587 h -7.078141 v 2.06587 h 0.146756 q 0.169333,-0.57573 0.372534,-0.94827 0.2032,-0.37253 0.462845,-0.57573 0.259644,-0.21449 0.587022,-0.29351 0.327378,-0.0903 0.745068,-0.0903 z"
         style="font-weight:bold;font-family:Didot;-inkscape-font-specification:'Didot Bold'"
         id="path316" /></g></g></svg>
